<mxfile host="app.diagrams.net" modified="2024-02-28T03:16:25.758Z" agent="Mozilla/5.0 (Macintosh; Intel Mac OS X 10_15_7) AppleWebKit/537.36 (KHTML, like Gecko) Chrome/122.0.0.0 Safari/537.36" etag="tK76kivGR9f4d9DX9o2v" version="23.1.6" type="github">
  <diagram name="第 1 页" id="WPeSKZ3zgi5uHqN3BZs9">
    <mxGraphModel dx="954" dy="640" grid="0" gridSize="10" guides="1" tooltips="1" connect="1" arrows="1" fold="1" page="0" pageScale="1" pageWidth="827" pageHeight="1169" math="0" shadow="0">
      <root>
        <mxCell id="0" />
        <mxCell id="1" parent="0" />
        <mxCell id="5Q7FV-45-rQ6y9RqwHLU-6" style="edgeStyle=orthogonalEdgeStyle;rounded=0;orthogonalLoop=1;jettySize=auto;html=1;exitX=0.5;exitY=1;exitDx=0;exitDy=0;" parent="1" source="5Q7FV-45-rQ6y9RqwHLU-1" target="5Q7FV-45-rQ6y9RqwHLU-2" edge="1">
          <mxGeometry relative="1" as="geometry" />
        </mxCell>
        <mxCell id="5Q7FV-45-rQ6y9RqwHLU-7" style="edgeStyle=orthogonalEdgeStyle;rounded=0;orthogonalLoop=1;jettySize=auto;html=1;entryX=0.5;entryY=0;entryDx=0;entryDy=0;" parent="1" source="5Q7FV-45-rQ6y9RqwHLU-1" target="5Q7FV-45-rQ6y9RqwHLU-3" edge="1">
          <mxGeometry relative="1" as="geometry" />
        </mxCell>
        <mxCell id="5Q7FV-45-rQ6y9RqwHLU-8" style="edgeStyle=orthogonalEdgeStyle;rounded=0;orthogonalLoop=1;jettySize=auto;html=1;" parent="1" source="5Q7FV-45-rQ6y9RqwHLU-1" target="5Q7FV-45-rQ6y9RqwHLU-4" edge="1">
          <mxGeometry relative="1" as="geometry" />
        </mxCell>
        <mxCell id="5Q7FV-45-rQ6y9RqwHLU-9" style="edgeStyle=orthogonalEdgeStyle;rounded=0;orthogonalLoop=1;jettySize=auto;html=1;exitX=0.5;exitY=1;exitDx=0;exitDy=0;" parent="1" source="5Q7FV-45-rQ6y9RqwHLU-1" target="5Q7FV-45-rQ6y9RqwHLU-5" edge="1">
          <mxGeometry relative="1" as="geometry" />
        </mxCell>
        <mxCell id="nE-GDgYtSD56kW7-TKQK-2" style="edgeStyle=orthogonalEdgeStyle;rounded=0;orthogonalLoop=1;jettySize=auto;html=1;exitX=0.5;exitY=1;exitDx=0;exitDy=0;" edge="1" parent="1" source="5Q7FV-45-rQ6y9RqwHLU-1" target="nE-GDgYtSD56kW7-TKQK-1">
          <mxGeometry relative="1" as="geometry" />
        </mxCell>
        <mxCell id="5Q7FV-45-rQ6y9RqwHLU-1" value="基于预训练模型的知识抽取工具" style="rounded=0;whiteSpace=wrap;html=1;" parent="1" vertex="1">
          <mxGeometry x="355" y="190" width="199" height="35" as="geometry" />
        </mxCell>
        <mxCell id="5Q7FV-45-rQ6y9RqwHLU-13" style="edgeStyle=orthogonalEdgeStyle;rounded=0;orthogonalLoop=1;jettySize=auto;html=1;entryX=0.5;entryY=0;entryDx=0;entryDy=0;exitX=0.5;exitY=1;exitDx=0;exitDy=0;" parent="1" source="5Q7FV-45-rQ6y9RqwHLU-2" target="5Q7FV-45-rQ6y9RqwHLU-10" edge="1">
          <mxGeometry relative="1" as="geometry" />
        </mxCell>
        <mxCell id="5Q7FV-45-rQ6y9RqwHLU-15" style="edgeStyle=orthogonalEdgeStyle;rounded=0;orthogonalLoop=1;jettySize=auto;html=1;entryX=0.5;entryY=0;entryDx=0;entryDy=0;" parent="1" source="5Q7FV-45-rQ6y9RqwHLU-2" target="5Q7FV-45-rQ6y9RqwHLU-11" edge="1">
          <mxGeometry relative="1" as="geometry" />
        </mxCell>
        <mxCell id="5Q7FV-45-rQ6y9RqwHLU-16" style="edgeStyle=orthogonalEdgeStyle;rounded=0;orthogonalLoop=1;jettySize=auto;html=1;entryX=0.5;entryY=0;entryDx=0;entryDy=0;exitX=0.5;exitY=1;exitDx=0;exitDy=0;" parent="1" source="5Q7FV-45-rQ6y9RqwHLU-2" target="5Q7FV-45-rQ6y9RqwHLU-12" edge="1">
          <mxGeometry relative="1" as="geometry" />
        </mxCell>
        <mxCell id="5Q7FV-45-rQ6y9RqwHLU-2" value="用&lt;br&gt;户&lt;br&gt;验&lt;br&gt;证" style="rounded=0;whiteSpace=wrap;html=1;" parent="1" vertex="1">
          <mxGeometry x="211" y="281" width="42" height="114" as="geometry" />
        </mxCell>
        <mxCell id="5Q7FV-45-rQ6y9RqwHLU-20" style="edgeStyle=orthogonalEdgeStyle;rounded=0;orthogonalLoop=1;jettySize=auto;html=1;entryX=0.5;entryY=0;entryDx=0;entryDy=0;" parent="1" source="5Q7FV-45-rQ6y9RqwHLU-3" target="5Q7FV-45-rQ6y9RqwHLU-17" edge="1">
          <mxGeometry relative="1" as="geometry" />
        </mxCell>
        <mxCell id="5Q7FV-45-rQ6y9RqwHLU-21" style="edgeStyle=orthogonalEdgeStyle;rounded=0;orthogonalLoop=1;jettySize=auto;html=1;entryX=0.5;entryY=0;entryDx=0;entryDy=0;" parent="1" source="5Q7FV-45-rQ6y9RqwHLU-3" target="5Q7FV-45-rQ6y9RqwHLU-18" edge="1">
          <mxGeometry relative="1" as="geometry" />
        </mxCell>
        <mxCell id="5Q7FV-45-rQ6y9RqwHLU-22" style="edgeStyle=orthogonalEdgeStyle;rounded=0;orthogonalLoop=1;jettySize=auto;html=1;entryX=0.5;entryY=0;entryDx=0;entryDy=0;exitX=0.5;exitY=1;exitDx=0;exitDy=0;" parent="1" source="5Q7FV-45-rQ6y9RqwHLU-3" target="5Q7FV-45-rQ6y9RqwHLU-19" edge="1">
          <mxGeometry relative="1" as="geometry" />
        </mxCell>
        <mxCell id="5Q7FV-45-rQ6y9RqwHLU-3" value="知&lt;br&gt;识&lt;br&gt;抽&lt;br&gt;取" style="rounded=0;whiteSpace=wrap;html=1;" parent="1" vertex="1">
          <mxGeometry x="320" y="281" width="42" height="114" as="geometry" />
        </mxCell>
        <mxCell id="5Q7FV-45-rQ6y9RqwHLU-26" style="edgeStyle=orthogonalEdgeStyle;rounded=0;orthogonalLoop=1;jettySize=auto;html=1;entryX=0.5;entryY=0;entryDx=0;entryDy=0;" parent="1" source="5Q7FV-45-rQ6y9RqwHLU-4" target="5Q7FV-45-rQ6y9RqwHLU-24" edge="1">
          <mxGeometry relative="1" as="geometry" />
        </mxCell>
        <mxCell id="5Q7FV-45-rQ6y9RqwHLU-27" style="edgeStyle=orthogonalEdgeStyle;rounded=0;orthogonalLoop=1;jettySize=auto;html=1;exitX=0.5;exitY=1;exitDx=0;exitDy=0;" parent="1" source="5Q7FV-45-rQ6y9RqwHLU-4" target="5Q7FV-45-rQ6y9RqwHLU-23" edge="1">
          <mxGeometry relative="1" as="geometry" />
        </mxCell>
        <mxCell id="5Q7FV-45-rQ6y9RqwHLU-28" style="edgeStyle=orthogonalEdgeStyle;rounded=0;orthogonalLoop=1;jettySize=auto;html=1;exitX=0.5;exitY=1;exitDx=0;exitDy=0;" parent="1" source="5Q7FV-45-rQ6y9RqwHLU-4" target="5Q7FV-45-rQ6y9RqwHLU-25" edge="1">
          <mxGeometry relative="1" as="geometry" />
        </mxCell>
        <mxCell id="5Q7FV-45-rQ6y9RqwHLU-4" value="结&lt;br&gt;果&lt;br&gt;融&lt;br&gt;合" style="rounded=0;whiteSpace=wrap;html=1;" parent="1" vertex="1">
          <mxGeometry x="433" y="281" width="42" height="114" as="geometry" />
        </mxCell>
        <mxCell id="5Q7FV-45-rQ6y9RqwHLU-32" style="edgeStyle=orthogonalEdgeStyle;rounded=0;orthogonalLoop=1;jettySize=auto;html=1;entryX=0.5;entryY=0;entryDx=0;entryDy=0;" parent="1" source="5Q7FV-45-rQ6y9RqwHLU-5" target="5Q7FV-45-rQ6y9RqwHLU-29" edge="1">
          <mxGeometry relative="1" as="geometry" />
        </mxCell>
        <mxCell id="5Q7FV-45-rQ6y9RqwHLU-33" style="edgeStyle=orthogonalEdgeStyle;rounded=0;orthogonalLoop=1;jettySize=auto;html=1;" parent="1" source="5Q7FV-45-rQ6y9RqwHLU-5" target="5Q7FV-45-rQ6y9RqwHLU-30" edge="1">
          <mxGeometry relative="1" as="geometry" />
        </mxCell>
        <mxCell id="5Q7FV-45-rQ6y9RqwHLU-34" style="edgeStyle=orthogonalEdgeStyle;rounded=0;orthogonalLoop=1;jettySize=auto;html=1;" parent="1" source="5Q7FV-45-rQ6y9RqwHLU-5" target="5Q7FV-45-rQ6y9RqwHLU-31" edge="1">
          <mxGeometry relative="1" as="geometry" />
        </mxCell>
        <mxCell id="5Q7FV-45-rQ6y9RqwHLU-5" value="数&lt;br&gt;据&lt;br&gt;管&lt;br&gt;理" style="rounded=0;whiteSpace=wrap;html=1;" parent="1" vertex="1">
          <mxGeometry x="543" y="281" width="42" height="114" as="geometry" />
        </mxCell>
        <mxCell id="5Q7FV-45-rQ6y9RqwHLU-10" value="用&lt;br&gt;户&lt;br&gt;注&lt;br&gt;册" style="rounded=0;whiteSpace=wrap;html=1;" parent="1" vertex="1">
          <mxGeometry x="183" y="437" width="28" height="159" as="geometry" />
        </mxCell>
        <mxCell id="5Q7FV-45-rQ6y9RqwHLU-11" value="用&lt;br&gt;户&lt;br&gt;登&lt;br&gt;录" style="rounded=0;whiteSpace=wrap;html=1;" parent="1" vertex="1">
          <mxGeometry x="218" y="437" width="28" height="159" as="geometry" />
        </mxCell>
        <mxCell id="5Q7FV-45-rQ6y9RqwHLU-12" value="用&lt;br&gt;户&lt;br&gt;信&lt;br&gt;息&lt;br&gt;修&lt;br&gt;改" style="rounded=0;whiteSpace=wrap;html=1;" parent="1" vertex="1">
          <mxGeometry x="253" y="437" width="28" height="159" as="geometry" />
        </mxCell>
        <mxCell id="5Q7FV-45-rQ6y9RqwHLU-17" value="基&lt;br&gt;于&lt;br&gt;知&lt;br&gt;识&lt;br&gt;抽&lt;br&gt;取&lt;br&gt;小&lt;br&gt;模&lt;br&gt;型" style="rounded=0;whiteSpace=wrap;html=1;" parent="1" vertex="1">
          <mxGeometry x="292" y="439" width="28" height="159" as="geometry" />
        </mxCell>
        <mxCell id="5Q7FV-45-rQ6y9RqwHLU-18" value="基&lt;br&gt;于&lt;br&gt;LLM&lt;div&gt;&lt;br/&gt;&lt;/div&gt;" style="rounded=0;whiteSpace=wrap;html=1;" parent="1" vertex="1">
          <mxGeometry x="327" y="437" width="28" height="159" as="geometry" />
        </mxCell>
        <mxCell id="5Q7FV-45-rQ6y9RqwHLU-19" value="基&lt;br&gt;于&lt;br&gt;融&lt;br&gt;合LLM&lt;br&gt;的&lt;br&gt;小&lt;br&gt;模&lt;br&gt;型" style="rounded=0;whiteSpace=wrap;html=1;" parent="1" vertex="1">
          <mxGeometry x="362" y="439" width="28" height="159" as="geometry" />
        </mxCell>
        <mxCell id="5Q7FV-45-rQ6y9RqwHLU-23" value="基&lt;br&gt;于&lt;br&gt;LLM" style="rounded=0;whiteSpace=wrap;html=1;" parent="1" vertex="1">
          <mxGeometry x="405" y="437" width="28" height="159" as="geometry" />
        </mxCell>
        <mxCell id="5Q7FV-45-rQ6y9RqwHLU-24" value="基&lt;br&gt;于&lt;br&gt;多&lt;br&gt;模&lt;br&gt;型&lt;br&gt;投&lt;br&gt;票" style="rounded=0;whiteSpace=wrap;html=1;" parent="1" vertex="1">
          <mxGeometry x="440" y="437" width="28" height="159" as="geometry" />
        </mxCell>
        <mxCell id="5Q7FV-45-rQ6y9RqwHLU-25" value="基&lt;br&gt;于&lt;br&gt;人&lt;br&gt;机&lt;br&gt;协&lt;br&gt;同" style="rounded=0;whiteSpace=wrap;html=1;" parent="1" vertex="1">
          <mxGeometry x="475" y="437" width="28" height="159" as="geometry" />
        </mxCell>
        <mxCell id="5Q7FV-45-rQ6y9RqwHLU-29" value="源&lt;br&gt;数&lt;br&gt;据&lt;br&gt;管&lt;br&gt;理" style="rounded=0;whiteSpace=wrap;html=1;" parent="1" vertex="1">
          <mxGeometry x="515" y="437" width="28" height="159" as="geometry" />
        </mxCell>
        <mxCell id="5Q7FV-45-rQ6y9RqwHLU-30" value="抽&lt;br&gt;取&lt;br&gt;结&lt;br&gt;果&lt;br&gt;管&lt;br&gt;理" style="rounded=0;whiteSpace=wrap;html=1;" parent="1" vertex="1">
          <mxGeometry x="550" y="437" width="28" height="159" as="geometry" />
        </mxCell>
        <mxCell id="5Q7FV-45-rQ6y9RqwHLU-31" value="向&lt;br&gt;量&lt;br&gt;数&lt;br&gt;据&lt;br&gt;管&lt;br&gt;理" style="rounded=0;whiteSpace=wrap;html=1;" parent="1" vertex="1">
          <mxGeometry x="585" y="437" width="28" height="159" as="geometry" />
        </mxCell>
        <mxCell id="nE-GDgYtSD56kW7-TKQK-5" style="edgeStyle=orthogonalEdgeStyle;rounded=0;orthogonalLoop=1;jettySize=auto;html=1;entryX=0.5;entryY=0;entryDx=0;entryDy=0;" edge="1" parent="1" source="nE-GDgYtSD56kW7-TKQK-1" target="nE-GDgYtSD56kW7-TKQK-3">
          <mxGeometry relative="1" as="geometry" />
        </mxCell>
        <mxCell id="nE-GDgYtSD56kW7-TKQK-6" style="edgeStyle=orthogonalEdgeStyle;rounded=0;orthogonalLoop=1;jettySize=auto;html=1;entryX=0.5;entryY=0;entryDx=0;entryDy=0;" edge="1" parent="1" source="nE-GDgYtSD56kW7-TKQK-1" target="nE-GDgYtSD56kW7-TKQK-4">
          <mxGeometry relative="1" as="geometry" />
        </mxCell>
        <mxCell id="nE-GDgYtSD56kW7-TKQK-1" value="模&lt;br&gt;型&lt;br&gt;服&lt;br&gt;务&lt;br&gt;管&lt;br&gt;理" style="rounded=0;whiteSpace=wrap;html=1;" vertex="1" parent="1">
          <mxGeometry x="653" y="281" width="42" height="114" as="geometry" />
        </mxCell>
        <mxCell id="nE-GDgYtSD56kW7-TKQK-3" value="模&lt;br&gt;型&lt;br&gt;超&lt;br&gt;参&lt;br&gt;管&lt;br&gt;理" style="rounded=0;whiteSpace=wrap;html=1;" vertex="1" parent="1">
          <mxGeometry x="631" y="437" width="28" height="159" as="geometry" />
        </mxCell>
        <mxCell id="nE-GDgYtSD56kW7-TKQK-4" value="模&lt;br&gt;型&lt;br&gt;上&lt;br&gt;线&lt;br&gt;下&lt;br&gt;线&lt;br&gt;管&lt;br&gt;理" style="rounded=0;whiteSpace=wrap;html=1;" vertex="1" parent="1">
          <mxGeometry x="690" y="437" width="28" height="159" as="geometry" />
        </mxCell>
      </root>
    </mxGraphModel>
  </diagram>
</mxfile>
